<svg width="144" height="127" viewBox="0 0 144 127" fill="none" xmlns="http://www.w3.org/2000/svg">
<path d="M52.4988 126.733C44.1569 127.432 30.4481 122.78 29.8741 113.687C29.6722 110.194 31.0897 106.551 32.5622 103.092C19.429 108.052 5.0533 107.606 5.03112 92.3851C4.98423 86.3247 10.2471 72.2036 18.916 75.7987C13.2707 72.7338 7.71873 69.08 4.09461 63.8622C0.402108 58.5459 -0.955652 51.2181 2.11273 44.58C7.57413 32.9145 23.7725 28.7517 35.5017 31.5865C31.6772 19.1574 44.8016 3.12929 59.1823 0.895645C73.4812 -1.35233 86.0628 8.28935 88.8132 21.1354C95.7706 9.04055 112.409 2.10171 124.442 6.2002C136.475 10.2987 142.157 24.7828 136.549 37.3736C147.929 33.4034 160.356 37.1386 166.033 45.829C171.71 54.5194 170.431 67.3506 163.33 77.1723C156.243 86.9099 143.822 93.2049 132.32 93.1766C137.67 101.81 135.817 109.785 129.577 116.299C126.552 119.486 122.556 121.38 118.297 121.757C99.1081 123.061 93.8712 115.831 84.4733 105.71C77.2808 116.64 65.1 125.657 52.4988 126.733Z" fill="url(#paint0_linear_1_59)" fill-opacity="0.66"/>
<defs>
<linearGradient id="paint0_linear_1_59" x1="93.7631" y1="0.565138" x2="70.939" y2="130.73" gradientUnits="userSpaceOnUse">
<stop stop-color="#FFD251"/>
<stop offset="0.267238" stop-color="#FFD65D" stop-opacity="0.722651"/>
<stop offset="0.963542" stop-color="#FFDE7E" stop-opacity="0"/>
</linearGradient>
</defs>
</svg>
