<svg width="79" height="59" viewBox="0 0 79 59" fill="none" xmlns="http://www.w3.org/2000/svg">
<path d="M55.0998 58.0389C58.9433 58.3147 65.2278 56.0983 65.4421 51.9099C65.5159 50.3007 64.8434 48.632 64.1467 47.0477C70.2189 49.2585 76.8335 48.9744 76.7602 41.9683C76.7485 39.1785 74.2485 32.7075 70.278 34.4099C72.8597 32.9682 75.3951 31.2559 77.0346 28.8343C78.7051 26.367 79.2898 22.9866 77.841 19.948C75.2631 14.6085 67.7843 12.7813 62.401 14.1505C64.0932 8.40848 57.9641 1.10294 51.3326 0.153765C44.7386 -0.802458 39.0003 3.7046 37.8048 9.63261C34.536 4.10367 26.8393 1.00113 21.3233 2.95369C15.8072 4.90625 13.2712 11.6044 15.9217 17.369C10.6616 15.604 4.96241 17.3915 2.39695 21.4228C-0.168496 25.4541 0.49054 31.3532 3.8129 35.835C7.12867 40.2782 12.8805 43.1076 18.1747 43.0314C15.7594 47.0345 16.6559 50.6953 19.5641 53.6595C20.974 55.1099 22.8236 55.9594 24.7862 56.1096C33.6258 56.6045 35.9966 53.2479 40.2668 48.5378C43.6375 53.5291 49.2936 57.6128 55.0998 58.0389Z" fill="url(#paint0_linear_1_57)" fill-opacity="0.66"/>
<defs>
<linearGradient id="paint0_linear_1_57" x1="35.4135" y1="0.191489" x2="46.6339" y2="59.9798" gradientUnits="userSpaceOnUse">
<stop stop-color="#FFD251"/>
<stop offset="0.267238" stop-color="#FFD65D" stop-opacity="0.722651"/>
<stop offset="0.963542" stop-color="#FFDE7E" stop-opacity="0"/>
</linearGradient>
</defs>
</svg>
