<svg width="320" height="142" viewBox="0 0 320 142" fill="none" xmlns="http://www.w3.org/2000/svg">
<path d="M186.043 3.38245C204.029 -2.26224 236.444 1.20667 242.184 20.9038C244.349 28.4816 243.029 37.1831 241.497 45.5106C267.913 28.1426 299.722 22.0406 307.268 55.476C310.357 68.77 305.748 102.392 284.928 98.7629C298.843 102.717 312.843 108.011 323.377 117.691C334.109 127.554 340.703 142.988 337.23 159.086C330.976 187.41 297.432 204.537 270.261 204.085C284.788 229.513 263.844 271.199 233.344 283.191C203.031 295.174 170.634 280.185 158.262 253.312C148.932 283.317 115.788 306.76 87.3285 303.682C58.8688 300.603 39.2473 271.574 45.3685 241.145C22.3168 255.475 -6.82882 253.388 -23.5848 237.089C-40.3409 220.789 -43.8516 191.963 -33.0864 166.883C-22.309 141.994 1.88398 122.043 27.1731 116.439C11.1636 100.104 11.3059 81.6669 21.8096 64.2785C26.887 55.7845 34.7348 49.6562 43.9086 46.7294C85.4317 34.4113 100.501 47.7186 126.137 65.329C136.558 37.7691 158.882 11.9539 186.043 3.38245Z" fill="url(#paint0_linear_1_58)" fill-opacity="0.66"/>
<defs>
<linearGradient id="paint0_linear_1_58" x1="157.518" y1="300.952" x2="143.553" y2="3.68363" gradientUnits="userSpaceOnUse">
<stop stop-color="#FFD251"/>
<stop offset="0.267238" stop-color="#FFD65D" stop-opacity="0.722651"/>
<stop offset="0.963542" stop-color="#FFDE7E" stop-opacity="0"/>
</linearGradient>
</defs>
</svg>
