<svg width="216" height="209" viewBox="0 0 216 209" fill="none" xmlns="http://www.w3.org/2000/svg">
<path d="M83.4306 49.1282C82.0796 49.1282 80.5784 49.3083 78.9572 49.7587C66.918 54.202 22.0639 71.6754 20.6828 71.1349C19.3018 70.5945 6.42196 58.1951 5.34113 56.5739C4.26031 54.9526 4.53052 52.7309 2.9393 53.4214C1.34809 54.112 -0.333192 60.9272 0.0571058 63.7193C0.357334 65.8509 8.64365 75.4582 11.6159 81.3127C13.5674 85.1556 15.3688 85.7261 17.02 85.2757C18.6713 84.8254 20.1424 83.3542 21.4034 83.084C24.6158 82.4235 33.1123 79.6014 33.1123 79.6014L80.1581 71.4051L97.6615 114.128L126.844 105.691L93.8185 55.0127C92.5576 52.7609 89.2851 49.1582 83.4306 49.1282Z" fill="#F8D1B5"/>
<path d="M86.8528 187.984H173.079V191.226H86.8528V187.984Z" fill="#FFDE7E"/>
<path d="M160.379 147.783L182.176 208.969H177.583L152.814 147.753H160.379V147.783Z" fill="#FFDE7E"/>
<path d="M133.869 147.783L112.102 209H116.696L141.465 147.783H133.869Z" fill="#FFDE7E"/>
<path d="M101.384 147.783L79.617 209H84.2105L108.979 147.783H101.384Z" fill="#FFDE7E"/>
<path d="M127.895 147.783L149.661 209H145.068L120.329 147.783H127.895Z" fill="#FFDE7E"/>
<path d="M157.166 58.0447C157.166 58.0447 196.617 60.8368 196.046 84.4648C195.506 108.093 171.397 145.291 157.347 150.485C143.296 155.679 99.1323 154.598 86.4626 146.042C73.793 137.515 80.7283 122.714 91.9568 124.125C103.155 125.536 138.252 110.224 141.194 92.9913C144.137 75.7882 149.24 58.9754 157.166 58.0447Z" fill="#FFDE7E"/>
<path d="M10.1146 51.1373C8.2532 51.0773 3.23938 55.4306 1.9484 57.8925C0.957641 59.8139 2.12853 72.4536 1.13778 78.9385C0.507299 83.2018 1.64817 84.7029 3.23938 85.3034C4.83059 85.9038 6.90217 85.5435 8.07306 86.084C11.0753 87.405 106.398 129.317 128.525 136.282C159.058 145.859 163.081 116.107 163.081 116.107L126.844 105.749L22.1238 78.9685C22.1238 78.9685 15.2185 77.1371 14.4379 75.9062C13.6273 74.6753 10.3248 57.0819 10.3848 55.1604C10.4449 53.2389 11.976 51.5577 10.2647 51.1974C10.2347 51.1674 10.1747 51.1373 10.1146 51.1373Z" fill="#F8D1B5"/>
<path d="M101.084 62.3369C100.693 62.3369 100.303 62.427 99.8527 62.6071C97.0606 63.808 81.6289 75.2768 79.9176 77.4084C78.2062 79.54 82.4395 82.6624 84.0007 84.794C85.2016 86.4453 97.3909 105.99 106.368 118.81L132.067 108.332L113.153 78.3691C111.772 74.4662 110.121 72.3345 108.379 70.8034L104.386 64.4685C104.356 64.4385 103.125 62.2769 101.084 62.3369Z" fill="#6D4AD3"/>
<path d="M126.843 105.691L102.735 97.7049C100.873 96.4139 99.4621 94.7926 95.1088 95.1829L86.192 92.2107C86.192 92.2107 83.0096 90.7996 81.4784 93.4116C79.9473 96.0536 74.363 114.428 74.2429 117.16C74.1228 119.892 79.3768 119.892 81.8988 120.672C82.9496 121.003 88.5939 125.926 95.289 128.508C104.746 132.171 116.635 133.912 123.3 135.384C134.679 137.905 155.034 138.566 160.288 130.46C165.542 122.354 163.081 116.049 163.081 116.049L126.843 105.691Z" fill="#6D4AD3"/>
<path d="M177.192 112.446C177.192 112.446 179.173 123.614 152.903 123.614C126.633 123.614 114.144 134.573 112.192 138.506C110.211 142.439 144.167 150.755 161.67 138.956C179.143 127.097 177.192 112.446 177.192 112.446Z" fill="#FFDE7E"/>
<path d="M128.735 99.9557C128.585 99.9257 122.7 104.159 124.862 105.15C136.961 110.584 149.451 115.267 163.682 116.829C166.114 117.099 164.582 110.284 164.432 110.224L128.735 99.9557Z" fill="white"/>
<path d="M181.876 58.8553C182.146 59.3657 182.416 59.846 182.656 60.4165C183.077 61.3772 183.467 62.428 183.827 63.5689C184.188 64.7097 184.578 65.7605 185.028 66.7813C185.449 67.8021 185.929 68.7328 186.409 69.6335C186.89 70.5342 187.4 71.3748 187.941 72.1854C188.481 72.9961 189.021 73.7166 189.592 74.4372C190.102 75.0977 190.643 75.6681 191.213 76.2385C198.178 71.2848 205.894 65.9407 210.548 63.2386C215.261 60.3864 217.873 53.241 213.4 48.7676C209.047 44.3843 176.111 36.3381 176.111 36.3381L175.091 43.3935L195.987 54.7722L181.876 58.8553Z" fill="#F8D1B5"/>
<path d="M123.181 58.0448C129.335 62.6383 135.82 67.4119 137.021 68.3126C134.92 73.6867 134.74 79.391 133.659 80.8021L133.028 92.6911C128.945 96.504 123.721 101.068 126.874 102.268C138.943 108.483 151.943 111.125 165.063 113.227C168.035 112.566 169.776 107.432 167.675 104.04C168.695 101.248 173.049 91.8505 176.231 87.0769C176.231 87.0769 183.196 81.9129 191.213 76.2386C190.672 75.6682 190.132 75.0677 189.591 74.4372C189.021 73.7467 188.48 72.9962 187.94 72.1855C187.4 71.3749 186.889 70.5343 186.409 69.6336C185.929 68.7329 185.448 67.7722 185.028 66.7814C184.608 65.7606 184.187 64.7098 183.827 63.569C183.467 62.4281 183.076 61.4073 182.656 60.4166C182.416 59.8461 182.146 59.3658 181.875 58.8554L176.351 60.4466L172.088 58.9454L170.197 57.1441L162.271 56.3635L133.539 43.6338C133.389 44.1142 133.208 44.6245 133.028 45.1349C132.728 45.8555 132.428 46.6061 132.037 47.3566C131.647 48.1072 131.227 48.8878 130.747 49.6984C130.266 50.479 129.696 51.2896 129.095 52.1002C128.495 52.9109 127.804 53.7215 127.054 54.5321C126.303 55.3427 125.493 56.1533 124.592 56.9639C124.141 57.2942 123.631 57.6545 123.181 58.0448Z" fill="#FFCE00"/>
<path d="M72.5619 0.430176C72.5319 0.430176 72.4718 0.430176 72.4418 0.430176C71.9014 0.58029 71.6612 2.05141 72.3217 3.19228C73.0423 4.42322 74.003 4.90358 74.003 4.90358C74.003 4.90358 65.1763 3.37241 59.0516 7.00518C58.0909 7.57562 58.3911 8.92664 60.0123 8.92664C61.2133 8.92664 63.1047 8.89662 64.6058 9.01671C63.555 9.10678 62.3842 9.34697 61.2433 9.85735C58.8715 10.9682 58.5112 11.7188 58.7214 12.3793C58.9015 13.0698 62.5343 11.959 64.3957 11.8689C65.5666 11.8088 67.5181 12.2592 68.779 12.5894C69.6797 14.2107 70.7905 15.952 71.7813 16.6125C72.8321 17.303 76.615 17.273 79.7073 17.1229C80.0376 17.7233 82.4094 20.3654 82.8297 21.1159C82.8297 21.1159 108.229 46.9656 111.622 49.4575C113.123 50.5383 118.047 54.2312 123.18 58.0441C123.631 57.6538 124.141 57.2935 124.561 56.9032C125.462 56.0926 126.273 55.282 127.023 54.4713C127.774 53.6607 128.434 52.8501 129.065 52.0395C129.665 51.2289 130.236 50.4483 130.716 49.6377C131.197 48.8571 131.647 48.0765 132.007 47.2959C132.397 46.5453 132.728 45.7947 132.998 45.0742C133.208 44.5638 133.358 44.0834 133.508 43.573L120.088 37.6285L88.2038 14.2407C88.2038 14.2407 80.0676 5.86431 78.6866 4.84354C77.3055 3.79274 73.8229 1.48098 72.9222 0.58029C72.8021 0.490222 72.682 0.430176 72.5619 0.430176Z" fill="#F8D1B5"/>
<path d="M176.772 46.2445C176.772 46.2445 174.79 49.9673 173.079 50.0874C171.368 50.2075 171.608 42.8519 176.772 46.2445Z" fill="url(#paint0_linear_1_10)"/>
<path d="M158.668 54.1111C158.668 54.1111 138.072 45.1343 136.451 44.0535C135.52 43.423 131.437 41.5015 128.315 39.7902C127.324 39.2498 127.594 38.1089 126.123 37.7186C124.682 37.3283 123.481 39.1597 123.481 39.1597C123.481 39.1597 124.382 39.6401 125.313 40.0304C126.904 40.6909 124.742 45.1943 121.8 48.5869C117.627 53.3906 116.065 52.8502 116.065 52.8502L113.754 51.0788C113.754 51.0788 113.123 54.6515 115.675 56.1827C118.227 57.7439 118.317 55.1019 122.881 60.2058C127.444 65.3096 135.34 69.1826 135.34 69.1826C135.34 69.1826 132.248 83.3534 130.687 86.5959C129.125 89.8383 127.294 89.9884 126.123 92.3903C124.952 94.7921 127.444 98.2747 127.444 98.2747C127.444 98.2747 127.144 98.1847 133.088 92.5404C139.063 86.8961 156.476 63.5083 157.227 62.0371C158.037 60.536 158.668 54.1111 158.668 54.1111Z" fill="#6D4AD3"/>
<path d="M157.107 51.258C156.867 51.258 156.717 51.3481 156.656 51.4982C156.206 52.6691 156.957 57.2325 155.426 59.3041C154.585 60.445 149.871 65.4588 146.028 72.3941C144.587 77.7081 141.315 79.8398 140.324 84.3732C145.008 76.8975 154.795 67.7706 157.947 61.4057C159.989 57.3226 162.301 56.3619 162.301 56.3619L163.802 53.93C163.772 53.96 158.668 51.1679 157.107 51.258Z" fill="#6D4AD3"/>
<path d="M174.13 44.593L172.118 58.9439C168.846 62.1264 151.672 66.5998 160.499 57.5329L163.742 47.9856L174.13 44.593Z" fill="#F8D1B5"/>
<path d="M164.312 30.5434C164.312 30.5434 163.412 31.5942 162.961 32.4348C161.731 34.6565 163.232 36.3978 163.232 36.3978L166.894 27.7812C166.894 27.8113 164.853 28.9521 164.312 30.5434Z" fill="url(#paint1_linear_1_10)"/>
<path d="M165.183 30.3326L160.649 43.963C160.649 43.963 158.788 48.7366 164.222 51.0784C169.626 53.4202 173.259 48.1962 174.25 45.4641C175.211 42.7321 176.652 38.2887 178.063 33.9654C179.474 29.6721 167.465 23.4274 165.183 30.3326Z" fill="#F8D1B5"/>
<path d="M171.458 22.1068C169.806 22.0167 167.164 24.9589 166.174 26.0998C164.913 27.5409 164.072 30.4531 164.312 30.5732C164.312 30.5732 166.894 27.8411 167.975 28.2014C169.056 28.5617 170.557 32.4947 171.818 33.4554C172.659 34.0859 174.28 33.8457 175.15 33.0651C175 34.5662 174.76 36.6378 174.19 38.229C173.019 41.5616 175.06 43.423 175.06 43.423C175.06 43.423 174.46 46.7855 176.081 45.9749C177.732 45.1643 182.656 41.7417 183.767 39.0697C184.878 36.3976 186.739 26.9705 179.654 25.049C176.261 24.1483 173.619 26.8804 172.659 23.3677C172.448 22.4971 172.028 22.1368 171.458 22.1068Z" fill="#28004B"/>
<path d="M178.063 45.554C176.832 46.9051 175 47.2353 173.98 46.2746C172.959 45.3439 173.109 43.4825 174.34 42.1314C175.571 40.7804 177.402 40.4502 178.423 41.4109C179.474 42.3416 179.294 44.203 178.063 45.554Z" fill="#F8D1B5"/>
<path d="M172.719 54.7713C172.719 54.7713 163.232 55.9422 163.652 57.3533C164.072 58.7944 165.363 61.1962 164.373 63.2078C163.412 65.2193 145.398 103.769 154.225 109.923C163.052 116.078 168.155 120.131 170.798 117.189C173.44 114.247 169.717 109.923 171.248 105.27C172.809 100.616 176.172 87.106 176.172 87.106C176.172 87.106 190.913 77.5887 195.987 74.6465C199.71 74.6465 199.079 71.9744 198.298 71.1938C197.758 71.464 197.128 71.9144 196.797 72.2146C194.335 70.113 190.853 65.0992 190.583 61.1662C190.432 59.1247 190.553 57.3533 191.123 56.3025C191.243 56.0623 192.294 55.9122 192.354 55.7621C192.384 53.8707 189.262 53.8106 188.331 55.4619L176.202 59.2147L173.259 58.284C173.319 58.284 173.86 55.2517 172.719 54.7713Z" fill="#6D4AD3"/>
<defs>
<linearGradient id="paint0_linear_1_10" x1="175.151" y1="45.8313" x2="172.967" y2="48.7347" gradientUnits="userSpaceOnUse">
<stop/>
<stop offset="1" stop-color="#735386"/>
</linearGradient>
<linearGradient id="paint1_linear_1_10" x1="165.919" y1="28.6285" x2="162.517" y2="35.5931" gradientUnits="userSpaceOnUse">
<stop/>
<stop offset="1" stop-color="#735386"/>
</linearGradient>
</defs>
</svg>
